<?xml version="1.0" encoding="utf-8"?>
<!-- Generator: Adobe Illustrator 25.4.1, SVG Export Plug-In . SVG Version: 6.00 Build 0)  -->
<svg version="1.1" id="Layer_1" xmlns="http://www.w3.org/2000/svg" xmlns:xlink="http://www.w3.org/1999/xlink" x="0px" y="0px"
	 viewBox="0 0 21.99 24.39" style="enable-background:new 0 0 21.99 24.39;" xml:space="preserve">
<g>
	<path d="M20.06,22.27c-1.62-1.42-3.17-2.78-4.78-4.19c0.18,0.63,0.35,1.2,0.52,1.79c-0.11,0.01-0.2,0.02-0.29,0.02
		c-3.8,0-7.6,0-11.39,0c-1.13,0-1.94-0.62-2.15-1.63c-0.04-0.19-0.04-0.39-0.04-0.59c0-4.42,0.02-8.84-0.02-13.26
		c-0.01-1.17,0.84-2.31,2.3-2.3c2.24,0.02,4.47,0,6.71,0c2.28,0,4.55,0,6.83,0c0.92,0,1.64,0.35,2.07,1.17
		c0.15,0.28,0.25,0.62,0.26,0.94c0.01,5.91,0.01,11.82,0.01,17.73C20.08,22.03,20.07,22.1,20.06,22.27z M9.51,6.99
		C9.4,6.93,9.36,6.9,9.33,6.9c-1.04,0.05-1.98,0.37-2.8,1.03c-0.06,0.05-0.11,0.13-0.14,0.2c-0.87,1.72-1.37,3.54-1.43,5.48
		c0,0.1,0,0.23,0.05,0.29c0.42,0.42,0.75,0.97,1.36,1.14c0.51,0.14,1.05,0.22,1.57,0.31c0.07,0.01,0.17-0.03,0.21-0.08
		c0.2-0.24,0.38-0.48,0.57-0.73c-1.38-0.7-1.38-0.7-1.56-1.08c2.59,1.32,5.15,1.4,7.74-0.05c-0.41,0.65-1.06,0.82-1.69,1.07
		c0.2,0.25,0.37,0.49,0.56,0.7c0.06,0.07,0.18,0.13,0.26,0.11c0.57-0.1,1.16-0.15,1.68-0.37c0.44-0.19,0.77-0.6,1.17-0.89
		c0.19-0.14,0.23-0.3,0.22-0.53c-0.08-1.9-0.58-3.69-1.44-5.38C15.61,8,15.5,7.9,15.4,7.82c-0.75-0.57-1.61-0.83-2.53-0.9
		C12.78,6.92,12.7,6.97,12.61,7c0.26,0.16,0.51,0.24,0.76,0.33c0.26,0.1,0.52,0.21,0.77,0.34c0.23,0.12,0.43,0.28,0.64,0.42
		c-2.59-1.01-5.16-1.04-7.73,0.06C7.71,7.47,8.59,7.26,9.51,6.99z"/>
	<path d="M10.15,11.7c0.01,0.62-0.48,1.15-1.06,1.14c-0.57,0-1.06-0.52-1.06-1.12c0-0.61,0.47-1.1,1.06-1.11
		C9.69,10.6,10.15,11.07,10.15,11.7z"/>
	<path d="M12.91,10.61c0.59,0,1.07,0.49,1.07,1.1c0,0.61-0.5,1.14-1.08,1.13c-0.57-0.01-1.05-0.52-1.05-1.13
		C11.85,11.1,12.31,10.61,12.91,10.61z"/>
</g>
</svg>
