<?xml version="1.0" encoding="utf-8"?>
<!-- Generator: Adobe Illustrator 25.4.1, SVG Export Plug-In . SVG Version: 6.00 Build 0)  -->
<svg version="1.1" id="Layer_1" xmlns="http://www.w3.org/2000/svg" xmlns:xlink="http://www.w3.org/1999/xlink" x="0px" y="0px"
	 viewBox="0 0 25.7 21.19" style="enable-background:new 0 0 25.7 21.19;" xml:space="preserve">
<g>
	<path d="M2.9,16.96c2.18,0.14,4.14-0.42,5.95-1.76c-1.88-0.19-3.13-1.12-3.84-2.89c0.63,0,1.19,0,1.75,0
		c0.01-0.03,0.02-0.06,0.02-0.09c-0.93-0.24-1.71-0.71-2.31-1.46C3.88,10,3.57,9.15,3.58,8.21C4.15,8.37,4.7,8.53,5.26,8.69
		C5.28,8.66,5.3,8.63,5.31,8.6C3.57,7.08,3.16,5.28,4.14,3.13c2.25,2.64,5.05,4.09,8.51,4.34c-0.01-0.14,0-0.24-0.02-0.34
		c-0.26-1.8,0.6-3.45,2.25-4.32c1.44-0.75,3.41-0.47,4.65,0.69c0.15,0.14,0.28,0.19,0.47,0.12c0.77-0.27,1.53-0.54,2.3-0.81
		C22,3.67,21.44,4.38,20.62,4.9c0.02,0.03,0.03,0.06,0.05,0.09c0.71-0.19,1.42-0.38,2.14-0.57c-0.03,0.06-0.07,0.14-0.12,0.2
		c-0.5,0.52-0.97,1.08-1.51,1.55c-0.25,0.23-0.33,0.43-0.34,0.75c-0.09,4.22-1.78,7.66-5.35,9.95c-4.07,2.61-8.3,2.47-12.49,0.16
		C2.96,17.01,2.93,16.99,2.9,16.96z"/>
</g>
</svg>
